<mxfile host="app.diagrams.net" modified="2024-01-24T04:52:14.458Z" agent="Mozilla/5.0 (Windows NT 10.0; Win64; x64) AppleWebKit/537.36 (KHTML, like Gecko) Chrome/120.0.0.0 Safari/537.36 Edg/120.0.0.0" etag="08iQLoZcwbAHTxpOsqvL" version="22.1.20" type="github">
  <diagram name="Страница — 1" id="-isNiKXUA1zVR6VBVtQ_">
    <mxGraphModel dx="704" dy="1033" grid="1" gridSize="10" guides="1" tooltips="1" connect="1" arrows="1" fold="1" page="1" pageScale="1" pageWidth="827" pageHeight="1169" math="0" shadow="0">
      <root>
        <mxCell id="0" />
        <mxCell id="1" parent="0" />
        <mxCell id="IcKPDsvwdKif-prZPxeq-1" value="&lt;font style=&quot;font-size: 25px;&quot; face=&quot;Times New Roman&quot;&gt;&lt;b&gt;Бизнес-процессы&lt;/b&gt;&lt;/font&gt;" style="rounded=0;whiteSpace=wrap;html=1;" vertex="1" parent="1">
          <mxGeometry x="330" y="30" width="266" height="60" as="geometry" />
        </mxCell>
        <mxCell id="IcKPDsvwdKif-prZPxeq-3" value="&lt;font style=&quot;font-size: 25px;&quot; face=&quot;Times New Roman&quot;&gt;&lt;b&gt;Бизнес-процессы обеспечения&lt;/b&gt;&lt;/font&gt;" style="rounded=0;whiteSpace=wrap;html=1;" vertex="1" parent="1">
          <mxGeometry x="330" y="150" width="266" height="60" as="geometry" />
        </mxCell>
        <mxCell id="IcKPDsvwdKif-prZPxeq-6" value="" style="endArrow=none;html=1;rounded=0;entryX=0.5;entryY=1;entryDx=0;entryDy=0;exitX=0.5;exitY=0;exitDx=0;exitDy=0;" edge="1" parent="1" source="IcKPDsvwdKif-prZPxeq-3" target="IcKPDsvwdKif-prZPxeq-1">
          <mxGeometry width="50" height="50" relative="1" as="geometry">
            <mxPoint x="438" y="150" as="sourcePoint" />
            <mxPoint x="488" y="100" as="targetPoint" />
          </mxGeometry>
        </mxCell>
        <mxCell id="IcKPDsvwdKif-prZPxeq-8" value="&lt;font style=&quot;font-size: 25px;&quot; face=&quot;Times New Roman&quot;&gt;&lt;b&gt;Основные бизнес-процессы&lt;/b&gt;&lt;/font&gt;" style="rounded=0;whiteSpace=wrap;html=1;" vertex="1" parent="1">
          <mxGeometry x="20" y="150" width="266" height="60" as="geometry" />
        </mxCell>
        <mxCell id="IcKPDsvwdKif-prZPxeq-9" value="" style="edgeStyle=segmentEdgeStyle;endArrow=none;html=1;curved=0;rounded=0;entryX=0.5;entryY=0;entryDx=0;entryDy=0;strokeColor=default;endFill=0;" edge="1" parent="1" target="IcKPDsvwdKif-prZPxeq-8">
          <mxGeometry width="50" height="50" relative="1" as="geometry">
            <mxPoint x="460" y="120" as="sourcePoint" />
            <mxPoint x="270" y="320" as="targetPoint" />
          </mxGeometry>
        </mxCell>
        <mxCell id="IcKPDsvwdKif-prZPxeq-10" value="&lt;font style=&quot;font-size: 25px;&quot; face=&quot;Times New Roman&quot;&gt;&lt;b&gt;Бизнес-процессы управления&lt;/b&gt;&lt;/font&gt;" style="rounded=0;whiteSpace=wrap;html=1;" vertex="1" parent="1">
          <mxGeometry x="650" y="150" width="266" height="60" as="geometry" />
        </mxCell>
        <mxCell id="IcKPDsvwdKif-prZPxeq-12" value="" style="edgeStyle=segmentEdgeStyle;endArrow=none;html=1;curved=0;rounded=0;endSize=8;startSize=8;entryX=0.5;entryY=0;entryDx=0;entryDy=0;endFill=0;" edge="1" parent="1" target="IcKPDsvwdKif-prZPxeq-10">
          <mxGeometry width="50" height="50" relative="1" as="geometry">
            <mxPoint x="450" y="120" as="sourcePoint" />
            <mxPoint x="590" y="350" as="targetPoint" />
          </mxGeometry>
        </mxCell>
      </root>
    </mxGraphModel>
  </diagram>
</mxfile>
